<svg width="532" height="426" viewBox="0 0 532 426" fill="none" xmlns="http://www.w3.org/2000/svg">
<g clip-path="url(#clip0_27_56016)">
<path d="M583 0H-56V426H583V0Z" fill="white"/>
<path d="M282.411 61.7153C157.18 61.7153 55.6611 125.426 55.6611 204.016C55.6611 235.586 72.0458 264.756 99.7631 288.358C141.05 323.511 207.492 346.317 282.409 346.317C357.326 346.317 423.77 323.516 465.057 288.358C492.774 264.756 509.159 235.586 509.159 204.016C509.161 125.431 407.642 61.7153 282.411 61.7153Z" fill="#DEECEF" stroke="#DEECEF" stroke-miterlimit="10"/>
<path d="M448 288.369H99.7644C141.051 323.522 207.493 346.328 282.411 346.328C357.328 346.328 423.772 323.526 465.058 288.369H448Z" fill="#C0C2EF" stroke="#C0C2EF" stroke-miterlimit="10"/>
<path d="M180.106 284.112H140.558C139.684 284.112 138.976 284.821 138.976 285.695V292.12C138.976 292.994 139.684 293.703 140.558 293.703H180.106C180.98 293.703 181.689 292.994 181.689 292.12V285.695C181.689 284.821 180.98 284.112 180.106 284.112Z" fill="#415DE5" stroke="#415DE5" stroke-miterlimit="10"/>
<path d="M173.929 274.523H147.236C146.362 274.523 145.654 275.231 145.654 276.105V282.531C145.654 283.405 146.362 284.113 147.236 284.113H173.929C174.803 284.113 175.512 283.405 175.512 282.531V276.105C175.512 275.231 174.803 274.523 173.929 274.523Z" fill="#333EE5" stroke="#333EE5" stroke-miterlimit="10"/>
<path d="M168.195 267.404H152.179C151.305 267.404 150.596 268.112 150.596 268.986V272.94C150.596 273.814 151.305 274.523 152.179 274.523H168.195C169.069 274.523 169.777 273.814 169.777 272.94V268.986C169.777 268.112 169.069 267.404 168.195 267.404Z" fill="#152CB3" stroke="#152CB3" stroke-miterlimit="10"/>
<path opacity="0.36" d="M152.179 267.404C152.179 267.404 150.596 267.557 150.596 268.986V272.946C150.596 272.946 150.635 274.528 152.179 274.528H147.235C147.235 274.528 145.654 274.563 145.654 276.11V282.536C145.654 282.536 145.732 284.118 147.235 284.118H140.558C140.558 284.118 138.976 284.459 138.976 285.7V292.127C138.976 292.127 139.067 293.708 140.558 293.708H180.108C180.108 293.708 181.689 293.556 181.689 292.127C181.689 292.127 152.494 297.236 154.952 267.413L152.179 267.404Z" fill="#182863"/>
<path d="M314.785 357.717C376.03 354.635 491.399 333.805 520.923 223.09C521.851 219.604 526.999 220.368 526.864 223.974C524.791 279.101 499.167 396.422 314.339 365.503C309.713 364.728 310.101 357.953 314.785 357.717Z" fill="#DEECEF" stroke="#DEECEF" stroke-miterlimit="10"/>
<path d="M184.066 75.7651V288.907" stroke="#003F99" stroke-width="4" stroke-miterlimit="10"/>
<path d="M387.455 79.7795V288.907" stroke="#003F99" stroke-width="4" stroke-miterlimit="10"/>
<path d="M476.288 130.187H96.5381" stroke="#003F99" stroke-width="4" stroke-miterlimit="10"/>
<path d="M501.724 240.302H75.6968" stroke="#003F99" stroke-width="4" stroke-miterlimit="10"/>
<path d="M299.477 333.435L294.238 321.945L297.342 310.27L253.628 330.02L288.269 341.322L290.556 334.039L299.477 333.435Z" fill="#727CDE" stroke="#727CDE" stroke-miterlimit="10"/>
<path d="M299.477 330.841L286.503 331.719L292.812 324.261L299.477 330.841Z" fill="#101D3B" stroke="#101D3B" stroke-miterlimit="10"/>
<path d="M297.342 307.676L253.628 327.426L294.238 319.351L297.342 307.676Z" fill="#8DAAF4"/>
<path d="M253.628 327.426L292.812 324.261L288.269 338.727L253.628 327.426Z" fill="#89A8F7"/>
<path d="M294.238 319.351L299.477 330.841L292.812 324.261L253.628 327.426L294.238 319.351Z" fill="#435DE0" stroke="#435DE0" stroke-miterlimit="10"/>
<path d="M308.532 331.719C308.532 331.719 449.043 362.904 501.776 287.431C554.509 211.958 369.513 49.3314 149.306 138.027" stroke="#003F99" stroke-width="4" stroke-miterlimit="10"/>
<path d="M322.792 175.421C322.792 175.421 310.323 169.31 285.171 166.188C284.698 162.571 284.45 158.929 284.429 155.281C285.629 155.344 297.909 155.857 303.809 150.912C303.809 150.912 307.332 148.23 309.514 142.101C311.695 135.972 313.207 128.447 313.207 128.447C313.207 128.447 315.813 119.679 312.199 110.121C310.462 105.528 307.506 99.3344 304.903 94.1364C299.031 82.4064 286.942 75.021 273.826 75.3405C272.286 75.379 270.749 75.5012 269.222 75.7065C269.222 75.7065 252.435 77.8911 246.056 86.9545C239.677 96.0179 235.312 106.09 235.312 106.09C235.312 106.09 228.261 117.56 232.625 128.446C236.988 139.332 243.702 147.721 243.702 147.721C243.702 147.721 248.111 154.029 260.035 153.447C260.249 156.384 260.286 160.411 259.819 165.684C259.819 165.684 223.074 168.64 206.706 183.748C206.706 183.748 170.696 212.203 172.963 263.318C172.963 263.318 174.738 283.48 193.007 289.078C200.107 291.325 209.664 291.336 222.569 286.989H324.806C324.806 286.989 340.719 291.955 353.383 286.579C360.903 283.552 367.25 277.065 368.368 264.072C368.368 264.075 378.838 204.638 322.792 175.421Z" stroke="#317EC9" stroke-width="5" stroke-miterlimit="10"/>
<path d="M85.9113 221.075C85.9113 221.075 104.44 213.12 92.5662 184.184C92.5662 184.184 86.8316 186.867 85.5713 189.393C85.5713 189.393 86.3974 183.703 92.5116 179.048L83.6543 160.788C83.6543 160.788 77.5278 160.526 73.0958 168.112C73.0958 168.112 71.3822 158.577 79.3902 153.925C79.3902 153.925 74.2646 138.791 63.4616 132.255C52.6587 125.719 45.5068 119.895 43.5448 117.293C43.5448 117.293 40.4727 131.421 37.3063 136.7C40.4855 137.93 43.4434 139.67 46.0639 141.85C46.0639 141.85 40.571 140.598 37.3623 141.943C37.3623 141.943 34.2219 149.406 41.4708 164.462C41.4708 164.462 51.4203 160.476 60.5384 169.229C60.5384 169.229 52.7652 165.707 44.1032 169.405C44.1032 169.405 43.6021 182.85 52.7338 192.913C52.7338 192.913 63.5927 190.959 74.3929 198.909C74.3929 198.909 61.4395 193.147 55.4004 201.079L64.3205 212.454C64.3205 212.454 69.0174 208.655 74.1717 208.344C74.1717 208.344 69.8025 211.74 67.0553 215.702C67.0553 215.705 76.6035 224.781 85.9113 221.075Z" fill="#435CE3" stroke="#435CE3" stroke-miterlimit="10"/>
<path d="M94.0176 283.242C94.0176 283.242 94.7535 228.791 76.4928 184.356C54.8474 131.682 43.5625 118.932 43.5625 118.932" stroke="#003F99" stroke-width="4" stroke-miterlimit="10"/>
<path d="M74.6905 229.391L64.3669 211.701C64.3669 211.701 60.6052 209.722 55.7499 210.893L61.4845 206.267C61.4845 206.267 60.1082 202.284 56.8422 197.861C45.1218 194.166 37.1548 199.648 37.1548 199.648C31.9554 199.666 27.6844 196.876 27.6844 196.876C29.6779 200.631 34.581 204.008 34.581 204.008C29.9305 209.069 28.871 213.628 28.871 213.628C28.871 213.628 33.3412 216.071 38.4287 229.637C38.4287 229.637 41.2536 235.675 50.2215 239.101C59.1893 242.526 59.6426 245.555 59.6426 245.555C59.6426 245.555 55.3826 242.369 49.0664 244.217C49.0664 244.217 58.1475 259.678 71.5228 257.454C71.5228 257.454 86.8411 254.135 77.7135 233.15L73.2077 236.919L74.6905 229.391Z" fill="#8EA8F5" stroke="#8EA8F5" stroke-miterlimit="10"/>
<path d="M59.6713 202.332C59.6713 202.332 41.2605 198.015 33.1596 218.598L28.8669 213.623L16.8638 202.327L28.4873 188.886L48.8151 193.612L56.8368 197.867L59.6713 202.332Z" fill="#1C2764" stroke="#1C2764" stroke-miterlimit="10"/>
<path d="M34.5755 204.008C34.5755 204.008 29.6724 200.631 27.679 196.876C27.679 196.876 31.9499 199.666 37.1493 199.648C37.1493 199.648 45.1163 194.166 56.8368 197.861C53.579 193.448 48.4397 188.596 40.9055 186.813C25.8139 183.244 10.34 193.927 10.34 193.927L17.8086 194.63C17.8086 194.63 7.32793 195.284 2.67743 201.196C2.67743 201.196 -2.36084 214.514 1.74351 223.227L5.56658 223.396L2.65012 226.177C2.65012 226.177 6.3626 241.132 6.59609 248.662C6.59609 248.662 23.0217 238.227 24.1918 227.154C24.1918 227.154 20.7497 225.526 17.7636 219.268C17.7636 219.268 20.8903 223.378 24.6669 225.14C24.6669 225.14 25.3114 219.353 28.871 213.629C28.8655 213.628 29.925 209.069 34.5755 204.008Z" fill="#435CE3" stroke="#435CE3" stroke-miterlimit="10"/>
<path d="M46.9172 189.08C46.9172 189.08 20.0997 182.32 12.2364 208.078C12.2364 208.078 9.61627 217.431 9.51659 226.539C9.41692 235.648 9.80333 241.599 6.59058 248.658" stroke="black" stroke-width="3" stroke-miterlimit="10"/>
<path d="M27.679 196.876C27.679 196.876 52.7447 211.478 77.2069 254.11L90.4607 280.146" stroke="#003F99" stroke-width="4" stroke-miterlimit="10"/>
<path d="M110.577 211.96C116.082 210.695 120.271 202.985 122.101 198.989C123.93 194.992 122.611 174.921 122.611 174.921L120.135 156.872C120.135 156.872 114.176 155.928 104.681 149.837C104.681 149.837 107.043 153.867 114.127 159.294C114.127 159.294 103.628 157.04 89.9596 175.391C89.2332 179.679 88.7621 183.49 88.4399 186.041C87.5019 193.46 95.4976 198.844 95.4976 198.844C87.5333 195.318 87.5947 190.059 87.5947 190.059C84.2332 197.797 87.577 204.853 92.7682 211.547C96.6936 216.61 96.0451 218.309 96.0451 218.309C92.6617 213.634 86.4615 214.203 86.4615 214.203C86.0873 234.798 105.01 241.401 105.01 241.401C111.28 240.892 116.563 235.951 120.386 229.159C124.209 222.368 121.848 205.856 121.848 205.856C116.9 212.39 110.577 211.96 110.577 211.96Z" fill="#8EA8F5" stroke="#8EA8F5" stroke-miterlimit="10"/>
<path d="M89.3643 182.006C89.3643 182.006 101.956 165.703 121.451 166.473L120.135 156.876L112.311 138.477C112.311 138.477 99.1582 147.232 89.9623 175.395L89.3643 182.006Z" fill="#1C2764" stroke="#1C2764" stroke-miterlimit="10"/>
<path d="M114.127 159.294C107.043 153.867 104.681 149.837 104.681 149.837C114.176 155.928 120.135 156.872 120.135 156.872C131.243 153.096 135.136 146.76 135.136 146.76C132.722 147 128.873 145.775 128.873 145.775C128.873 145.775 120.315 143.068 129.341 143.591C138.368 144.114 140.234 139.925 140.234 139.925C144.273 128.981 147.762 120.603 147.762 120.603C147.762 120.603 135.589 120.688 130.458 122.962C125.327 125.237 125.89 130.083 125.89 130.083C123.805 127.609 125.305 124.556 125.305 124.556C108.238 131.693 97.6673 151.044 97.6673 151.044C93.668 157.285 91.3496 167.205 89.9624 175.385C103.63 157.04 114.127 159.294 114.127 159.294Z" fill="#435CE3" stroke="#435CE3" stroke-miterlimit="10"/>
<path d="M101.131 289.472C101.131 289.472 106.485 247.137 104.496 222.978C101.746 189.556 106.843 161.783 106.843 161.783" stroke="#003F99" stroke-width="4" stroke-miterlimit="10"/>
<path d="M147.763 120.606L120.544 135.696C120.544 135.696 100.524 146.742 91.7783 166.444" stroke="black" stroke-width="3" stroke-miterlimit="10"/>
<path d="M163.682 213.741C184.467 213.741 201.316 196.892 201.316 176.107C201.316 155.323 184.467 138.473 163.682 138.473C142.897 138.473 126.048 155.323 126.048 176.107C126.048 196.892 142.897 213.741 163.682 213.741Z" fill="white" stroke="white" stroke-width="3" stroke-miterlimit="10"/>
<path d="M142.729 196.872C148.757 196.872 153.644 191.985 153.644 185.957C153.644 179.929 148.757 175.042 142.729 175.042C136.701 175.042 131.814 179.929 131.814 185.957C131.814 191.985 136.701 196.872 142.729 196.872Z" fill="#D2E0F4" stroke="#D2E0F4" stroke-miterlimit="10"/>
<path d="M142.729 178.207C142.729 178.207 138.956 177.409 137.297 181.611C137.297 181.611 135.031 186.789 138.956 190.31C138.956 190.31 142.385 193.224 146.644 191.177C146.644 191.177 149.131 189.739 148.468 186.974C148.468 186.974 148.137 186.204 146.813 185.208C145.488 184.211 145.289 183.266 145.191 182.086C145.092 180.907 144.422 178.483 142.729 178.207Z" fill="#8BACE7" stroke="#8BACE7" stroke-miterlimit="10"/>
<path d="M143.851 177.41C143.851 177.574 143.803 177.735 143.711 177.871C143.62 178.008 143.49 178.114 143.339 178.177C143.187 178.24 143.02 178.256 142.859 178.224C142.698 178.192 142.55 178.113 142.434 177.997C142.318 177.88 142.239 177.732 142.207 177.571C142.175 177.41 142.192 177.243 142.255 177.091C142.318 176.94 142.424 176.81 142.561 176.719C142.698 176.628 142.858 176.58 143.023 176.58C143.132 176.58 143.239 176.601 143.34 176.643C143.441 176.685 143.532 176.746 143.609 176.823C143.686 176.9 143.747 176.992 143.789 177.092C143.83 177.193 143.852 177.301 143.851 177.41Z" fill="#4754AA" stroke="#4754AA" stroke-miterlimit="10"/>
<path d="M142.192 185.856C142.651 185.856 143.023 185.484 143.023 185.026C143.023 184.567 142.651 184.196 142.192 184.196C141.734 184.196 141.362 184.567 141.362 185.026C141.362 185.484 141.734 185.856 142.192 185.856Z" fill="#001133" stroke="#001133" stroke-miterlimit="10"/>
<path d="M141.099 177.717C141.099 177.845 141.061 177.97 140.99 178.076C140.919 178.182 140.818 178.265 140.7 178.314C140.582 178.363 140.452 178.375 140.326 178.35C140.201 178.325 140.086 178.264 139.996 178.173C139.906 178.083 139.844 177.968 139.819 177.842C139.795 177.717 139.808 177.587 139.857 177.469C139.906 177.351 139.989 177.25 140.095 177.179C140.202 177.109 140.327 177.071 140.454 177.071C140.539 177.071 140.623 177.088 140.701 177.12C140.78 177.153 140.851 177.201 140.911 177.261C140.97 177.321 141.018 177.392 141.05 177.47C141.082 177.548 141.099 177.632 141.099 177.717Z" fill="#4754AA" stroke="#4754AA" stroke-miterlimit="10"/>
<path d="M145.394 178.818C145.394 178.945 145.356 179.07 145.285 179.177C145.214 179.283 145.113 179.366 144.995 179.414C144.877 179.463 144.747 179.476 144.622 179.451C144.497 179.426 144.381 179.364 144.291 179.274C144.201 179.183 144.14 179.068 144.115 178.943C144.09 178.817 144.103 178.688 144.152 178.57C144.201 178.452 144.284 178.351 144.391 178.28C144.497 178.209 144.622 178.172 144.75 178.172C144.834 178.172 144.918 178.189 144.997 178.221C145.075 178.254 145.146 178.301 145.206 178.361C145.266 178.421 145.313 178.492 145.346 178.571C145.378 178.649 145.394 178.733 145.394 178.818Z" fill="#4754AA" stroke="#4754AA" stroke-miterlimit="10"/>
<path d="M138.666 179.272C138.917 179.272 139.12 179.069 139.12 178.817C139.12 178.566 138.917 178.363 138.666 178.363C138.414 178.363 138.211 178.566 138.211 178.817C138.211 179.069 138.414 179.272 138.666 179.272Z" fill="#4754AA" stroke="#4754AA" stroke-miterlimit="10"/>
<path d="M145.284 180.747C145.535 180.747 145.738 180.543 145.738 180.292C145.738 180.041 145.535 179.838 145.284 179.838C145.033 179.838 144.829 180.041 144.829 180.292C144.829 180.543 145.033 180.747 145.284 180.747Z" fill="#4754AA" stroke="#4754AA" stroke-miterlimit="10"/>
<path d="M137.917 180.284C138.056 179.692 137.69 179.099 137.099 178.96C136.507 178.82 135.914 179.187 135.775 179.778C135.635 180.37 136.001 180.962 136.593 181.102C137.184 181.242 137.777 180.875 137.917 180.284Z" fill="#4754AA" stroke="#4754AA" stroke-miterlimit="10"/>
<path d="M136.664 182.458C136.916 182.458 137.12 182.254 137.12 182.002C137.12 181.75 136.916 181.546 136.664 181.546C136.412 181.546 136.208 181.75 136.208 182.002C136.208 182.254 136.412 182.458 136.664 182.458Z" fill="#4754AA" stroke="#4754AA" stroke-miterlimit="10"/>
<path d="M136.367 184.593C136.811 184.149 136.811 183.429 136.367 182.984C135.923 182.54 135.203 182.54 134.759 182.984C134.314 183.429 134.314 184.149 134.759 184.593C135.203 185.037 135.923 185.037 136.367 184.593Z" fill="#4754AA" stroke="#4754AA" stroke-miterlimit="10"/>
<path d="M136.801 186.76C136.801 186.883 136.765 187.003 136.697 187.105C136.629 187.207 136.532 187.287 136.419 187.334C136.305 187.381 136.18 187.393 136.06 187.37C135.94 187.346 135.829 187.287 135.742 187.2C135.656 187.113 135.597 187.002 135.573 186.882C135.549 186.762 135.561 186.637 135.608 186.524C135.655 186.41 135.735 186.314 135.837 186.245C135.939 186.177 136.059 186.141 136.182 186.142C136.346 186.142 136.503 186.207 136.619 186.323C136.735 186.439 136.801 186.596 136.801 186.76Z" fill="#4754AA" stroke="#4754AA" stroke-miterlimit="10"/>
<path d="M137.504 188.696C137.504 188.827 137.465 188.955 137.392 189.063C137.32 189.172 137.216 189.257 137.096 189.307C136.975 189.357 136.842 189.37 136.714 189.344C136.586 189.319 136.468 189.256 136.376 189.164C136.283 189.071 136.22 188.953 136.195 188.825C136.169 188.697 136.182 188.564 136.232 188.443C136.282 188.323 136.367 188.219 136.476 188.147C136.584 188.074 136.712 188.035 136.843 188.035C137.018 188.035 137.186 188.105 137.31 188.229C137.434 188.353 137.504 188.521 137.504 188.696Z" fill="#4754AA" stroke="#4754AA" stroke-miterlimit="10"/>
<path d="M138.869 191.616C139.255 191.229 139.255 190.602 138.869 190.216C138.482 189.829 137.855 189.829 137.469 190.216C137.082 190.602 137.082 191.229 137.469 191.616C137.855 192.002 138.482 192.002 138.869 191.616Z" fill="#4754AA" stroke="#4754AA" stroke-miterlimit="10"/>
<path d="M141.345 191.996C141.345 192.11 141.311 192.22 141.249 192.315C141.186 192.409 141.097 192.482 140.992 192.526C140.887 192.569 140.772 192.581 140.661 192.559C140.55 192.537 140.448 192.482 140.368 192.402C140.288 192.322 140.233 192.22 140.211 192.109C140.189 191.998 140.201 191.883 140.244 191.778C140.288 191.673 140.361 191.584 140.455 191.521C140.55 191.459 140.661 191.425 140.774 191.426C140.925 191.426 141.07 191.486 141.177 191.593C141.284 191.7 141.344 191.845 141.345 191.996Z" fill="#4754AA" stroke="#4754AA" stroke-miterlimit="10"/>
<path d="M143.535 192.792C143.535 192.975 143.481 193.153 143.379 193.304C143.278 193.456 143.134 193.574 142.966 193.644C142.797 193.713 142.612 193.732 142.433 193.696C142.254 193.661 142.09 193.573 141.961 193.444C141.832 193.315 141.745 193.151 141.709 192.972C141.673 192.793 141.692 192.608 141.761 192.44C141.831 192.271 141.949 192.127 142.101 192.026C142.252 191.925 142.431 191.871 142.613 191.871C142.857 191.871 143.092 191.968 143.265 192.141C143.437 192.313 143.535 192.548 143.535 192.792Z" fill="#4754AA" stroke="#4754AA" stroke-miterlimit="10"/>
<path d="M145.442 193.605C145.974 193.605 146.405 193.174 146.405 192.642C146.405 192.11 145.974 191.679 145.442 191.679C144.91 191.679 144.479 192.11 144.479 192.642C144.479 193.174 144.91 193.605 145.442 193.605Z" fill="#4754AA" stroke="#4754AA" stroke-miterlimit="10"/>
<path d="M148.103 191.427C148.103 191.552 148.066 191.675 147.996 191.779C147.927 191.883 147.828 191.965 147.712 192.012C147.596 192.06 147.468 192.073 147.346 192.048C147.223 192.024 147.11 191.963 147.021 191.874C146.933 191.786 146.872 191.673 146.848 191.55C146.824 191.427 146.837 191.299 146.885 191.184C146.933 191.068 147.014 190.969 147.119 190.9C147.223 190.83 147.346 190.793 147.471 190.793C147.554 190.793 147.636 190.81 147.713 190.842C147.79 190.874 147.86 190.92 147.918 190.979C147.977 191.038 148.024 191.108 148.055 191.185C148.087 191.262 148.103 191.344 148.103 191.427Z" fill="#4754AA" stroke="#4754AA" stroke-miterlimit="10"/>
<path d="M149.29 189.985C149.29 190.11 149.253 190.232 149.184 190.336C149.115 190.44 149.016 190.521 148.901 190.569C148.786 190.617 148.659 190.63 148.536 190.605C148.414 190.581 148.301 190.521 148.213 190.433C148.125 190.344 148.064 190.232 148.04 190.109C148.016 189.987 148.028 189.86 148.076 189.744C148.124 189.629 148.205 189.531 148.309 189.461C148.413 189.392 148.535 189.355 148.66 189.356C148.827 189.356 148.987 189.422 149.105 189.54C149.223 189.658 149.29 189.818 149.29 189.985Z" fill="#4754AA" stroke="#4754AA" stroke-miterlimit="10"/>
<path d="M150.295 186.554C150.383 186.013 150.015 185.502 149.473 185.414C148.931 185.326 148.421 185.694 148.333 186.236C148.245 186.778 148.613 187.288 149.155 187.376C149.696 187.464 150.207 187.096 150.295 186.554Z" fill="#4754AA" stroke="#4754AA" stroke-miterlimit="10"/>
<path d="M148.214 184.888C148.214 185.023 148.174 185.155 148.099 185.267C148.024 185.38 147.917 185.467 147.792 185.519C147.668 185.57 147.53 185.584 147.398 185.558C147.265 185.531 147.144 185.466 147.048 185.371C146.953 185.275 146.888 185.154 146.862 185.021C146.835 184.889 146.849 184.752 146.9 184.627C146.952 184.502 147.04 184.395 147.152 184.32C147.264 184.245 147.396 184.205 147.531 184.205C147.712 184.205 147.886 184.277 148.014 184.405C148.142 184.533 148.214 184.707 148.214 184.888Z" fill="#4754AA" stroke="#4754AA" stroke-miterlimit="10"/>
<path d="M173.538 157.918C172.737 157.665 172.022 157.198 171.469 156.566C168.449 153.153 165.091 153.329 165.091 153.329V153.4C165.091 153.4 161.735 153.225 158.715 156.637C158.162 157.268 157.447 157.736 156.646 157.989L156.51 158.028C160.306 157.692 163.486 158.824 165.09 159.558V159.487C166.694 158.753 169.869 157.621 173.67 157.957L173.538 157.918Z" fill="#2736D1" stroke="#2736D1" stroke-miterlimit="10"/>
<path d="M172.232 173.191C173.734 171.962 174.891 169.437 174.226 168.026C173.905 167.343 173.932 166.524 174.047 165.867C174.163 165.226 174.482 164.64 174.957 164.194C176.352 162.856 176.219 160.469 176.219 160.469C176.219 160.469 175.744 160.565 175.202 160.715C174.394 161.906 173.522 162.939 172.814 163.173C170.946 163.796 172.066 168.023 172.066 168.023C172.066 168.023 172.639 169.951 169.861 171.469C168.827 172.025 168.05 172.96 167.691 174.077C166.306 178.559 166.312 183.355 167.707 187.833C167.707 187.833 168.578 189.199 170.696 187.833C172.814 186.468 168.578 193.17 168.578 193.17C168.578 193.17 165.984 199.737 166.657 203.313C166.986 205.052 166.095 204.973 165.091 204.433V204.505C164.089 205.051 163.197 205.123 163.526 203.384C164.209 199.808 161.604 193.241 161.604 193.241C161.604 193.241 157.371 186.535 159.488 187.904C161.604 189.274 162.477 187.904 162.477 187.904C163.872 183.426 163.877 178.629 162.492 174.148C162.133 173.031 161.355 172.096 160.322 171.54C157.545 170.022 158.117 168.094 158.117 168.094C158.117 168.094 159.238 163.861 157.37 163.244C156.66 163.008 155.789 161.974 154.982 160.786C154.436 160.636 153.965 160.54 153.965 160.54C153.965 160.54 153.828 162.927 155.226 164.265C155.701 164.711 156.02 165.297 156.137 165.938C156.25 166.6 156.274 167.417 155.958 168.097C155.293 169.508 156.454 172.038 157.956 173.267C159.458 174.496 154.451 175.937 154.875 181.942C155.3 187.946 162.931 193.76 162.931 205.552C162.931 205.552 164.26 207.379 165.09 205.552V205.481C165.921 207.306 167.25 205.481 167.25 205.481C167.25 193.689 174.896 187.877 175.312 181.871C175.729 175.864 170.738 174.42 172.232 173.191Z" fill="#2736D1" stroke="#2736D1" stroke-miterlimit="10"/>
<path d="M195.914 160.876C193.429 156.547 184.395 155.186 179.907 157.326C178.92 157.806 177.858 158.111 176.767 158.229C175.742 158.334 174.706 158.249 173.712 157.976C169.918 157.635 166.737 158.761 165.131 159.492V159.563C163.527 158.828 160.352 157.691 156.552 158.02C155.558 158.29 154.522 158.372 153.498 158.263C152.406 158.143 151.344 157.834 150.357 157.351C145.876 155.202 136.84 156.532 134.34 160.856C131.84 165.18 143.464 168.068 143.464 168.068L143.962 167.273C143.962 167.273 134.396 164.892 135.139 161.627C135.239 161.214 135.49 160.852 135.842 160.613C137.399 159.521 144.023 155.371 149.691 158.944C149.691 158.944 153.009 160.527 154.006 160.528C154.612 160.651 155.153 160.991 155.527 161.484C156.179 162.355 156.842 163.045 157.404 163.233C159.271 163.858 158.144 168.084 158.144 168.084C158.144 168.084 157.568 170.011 160.344 171.533C161.376 172.092 162.152 173.028 162.509 174.145C163.887 178.629 163.874 183.425 162.471 187.902C162.471 187.902 161.597 189.267 159.482 187.902C157.844 186.839 159.998 190.608 161.061 192.375C161.463 193.044 161.792 193.754 162.044 194.494C162.752 196.576 163.995 200.774 163.498 203.388C163.166 205.126 164.058 205.048 165.061 204.51V204.439C166.063 204.985 166.955 205.06 166.629 203.321C166.139 200.712 167.395 196.513 168.11 194.432C168.364 193.694 168.695 192.984 169.099 192.316C170.166 190.553 172.329 186.791 170.692 187.848C168.572 189.214 167.703 187.848 167.703 187.848C166.312 183.368 166.312 178.572 167.703 174.092C168.064 172.975 168.843 172.042 169.877 171.487C172.657 169.973 172.088 168.045 172.088 168.045C172.088 168.045 170.973 163.812 172.843 163.196C173.405 163.009 174.071 162.322 174.725 161.453C175.099 160.958 175.641 160.618 176.249 160.497C177.245 160.497 180.569 158.925 180.569 158.925C186.248 155.375 192.858 159.547 194.413 160.638C194.764 160.878 195.013 161.24 195.112 161.653C195.845 164.921 186.271 167.272 186.271 167.272L186.768 168.069C186.768 168.069 198.399 165.212 195.914 160.876ZM165.09 202.93V203.001C164.215 202.306 164.014 201.723 164.014 201.723C164.363 201.908 164.722 202.072 165.09 202.215V202.144C165.458 202.001 165.818 201.837 166.167 201.652C166.167 201.652 165.968 202.241 165.091 202.936L165.09 202.93ZM165.09 200.2V200.271C163.932 199.472 163.684 198.748 163.684 198.748C164.136 198.988 164.606 199.192 165.09 199.358V199.287C165.574 199.121 166.044 198.917 166.496 198.677C166.496 198.677 166.251 199.408 165.091 200.206L165.09 200.2ZM165.09 197.585V197.656C163.43 196.731 163.101 195.774 163.101 195.774C163.73 196.114 164.398 196.376 165.09 196.555V196.484C165.783 196.305 166.451 196.043 167.081 195.703C167.081 195.703 166.753 196.666 165.091 197.592L165.09 197.585ZM165.09 195.032V195.103C162.673 194.073 162.238 192.801 162.238 192.801C163.467 193.446 164.422 193.67 165.09 193.728V193.657C165.758 193.599 166.715 193.375 167.944 192.73C167.945 192.736 167.514 194.009 165.091 195.038L165.09 195.032ZM168.245 190.107C168.245 190.107 167.575 191.513 165.09 192.155V192.226C162.606 191.579 161.935 190.178 161.935 190.178C163.393 190.691 164.428 190.675 165.09 190.538V190.471C165.754 190.608 166.79 190.627 168.247 190.113L168.245 190.107Z" fill="#8DAAF4" stroke="#8DAAF4" stroke-miterlimit="10"/>
<path d="M165.091 193.734C164.425 193.677 163.468 193.453 162.239 192.807C162.239 192.807 162.675 194.08 165.091 195.109V195.038C167.508 194.009 167.945 192.736 167.945 192.736C166.716 193.382 165.76 193.606 165.091 193.663V193.734Z" fill="#172A65" stroke="#172A65" stroke-miterlimit="10"/>
<path d="M165.091 196.562C164.399 196.383 163.731 196.121 163.102 195.781C163.102 195.781 163.431 196.737 165.091 197.663V197.592C166.753 196.666 167.082 195.71 167.082 195.71C166.452 196.05 165.784 196.312 165.091 196.491V196.562Z" fill="#172A65" stroke="#172A65" stroke-miterlimit="10"/>
<path d="M165.091 199.365C164.607 199.199 164.137 198.995 163.685 198.755C163.685 198.755 163.933 199.478 165.091 200.277V200.206C166.251 199.407 166.498 198.684 166.498 198.684C166.046 198.924 165.575 199.128 165.091 199.294V199.365Z" fill="#172A65" stroke="#172A65" stroke-miterlimit="10"/>
<path d="M165.091 202.22C164.723 202.077 164.364 201.913 164.015 201.729C164.015 201.729 164.216 202.312 165.091 203.007V202.936C165.968 202.241 166.169 201.658 166.169 201.658C165.819 201.842 165.46 202.006 165.091 202.149V202.22Z" fill="#172A65" stroke="#172A65" stroke-miterlimit="10"/>
<path d="M165.091 192.238V192.167C167.576 191.52 168.247 190.119 168.247 190.119C166.79 190.632 165.754 190.616 165.091 190.479V190.55C164.429 190.687 163.394 190.703 161.936 190.19C161.936 190.184 162.608 191.591 165.091 192.238Z" fill="#172A65" stroke="#172A65" stroke-miterlimit="10"/>
<path d="M140.947 167.239C141.446 165.587 143.597 164.773 145.756 165.422C145.973 165.487 146.186 165.566 146.392 165.659C145.262 166.526 143.662 168.199 143.025 171.029C141.435 170.192 140.527 168.64 140.947 167.239Z" fill="#2736D1" stroke="#2736D1" stroke-miterlimit="10"/>
<path d="M147.591 167.235C147.628 167.232 147.666 167.232 147.703 167.235C147.925 167.242 148.139 167.321 148.312 167.461C148.485 167.602 148.607 167.795 148.659 168.011C148.761 168.411 148.689 168.783 148.577 168.949C148.554 168.981 148.544 169.022 148.549 169.061C148.555 169.101 148.576 169.137 148.607 169.162L148.632 169.181C148.692 169.228 148.738 169.292 148.762 169.365C148.786 169.438 148.789 169.516 148.768 169.59C148.712 169.778 148.634 169.958 148.535 170.127C148.488 170.203 148.419 170.261 148.336 170.294C148.254 170.327 148.163 170.332 148.077 170.309C147.941 170.268 147.845 170.232 147.845 170.232C147.845 170.232 147.913 170.306 148.006 170.421C148.051 170.474 148.072 170.542 148.067 170.611C148.061 170.68 148.029 170.744 147.976 170.789C147.786 170.95 147.578 171.087 147.355 171.199C147.258 171.248 147.15 171.274 147.041 171.274C146.932 171.274 146.824 171.248 146.727 171.199C146.664 171.159 146.609 171.106 146.567 171.045C146.525 170.983 146.496 170.913 146.482 170.84C146.495 170.96 146.515 171.078 146.541 171.196C146.55 171.234 146.551 171.274 146.544 171.312C146.537 171.351 146.522 171.387 146.501 171.42C146.48 171.453 146.452 171.481 146.42 171.503C146.388 171.525 146.351 171.541 146.313 171.548C146.057 171.597 145.798 171.624 145.538 171.628C145.415 171.631 145.294 171.599 145.189 171.536C145.092 171.48 145.021 171.387 144.992 171.278C144.963 171.169 144.979 171.053 145.035 170.956C145.035 170.956 144.967 171.14 144.914 171.353C144.897 171.42 144.856 171.478 144.798 171.516C144.741 171.553 144.671 171.568 144.604 171.557C144.386 171.52 144.171 171.469 143.959 171.405L143.823 171.361C143.741 171.334 143.671 171.279 143.625 171.206C143.58 171.132 143.561 171.045 143.573 170.96C143.584 170.881 143.7 170.785 143.723 170.707C143.723 170.707 143.412 170.92 143.076 171.102L143.023 171.061C143.659 168.21 145.262 166.526 146.398 165.657C146.906 165.88 147.371 166.19 147.774 166.572C147.824 166.619 147.861 166.68 147.88 166.746C147.899 166.813 147.9 166.884 147.882 166.951C147.865 167.018 147.83 167.079 147.781 167.128C147.732 167.177 147.671 167.212 147.603 167.23L147.591 167.235Z" fill="#4754AA" stroke="#4754AA" stroke-miterlimit="10"/>
<path d="M189.235 167.168C188.738 165.515 186.585 164.701 184.428 165.351C184.21 165.416 183.997 165.496 183.79 165.588C184.922 166.455 186.521 168.127 187.159 170.958C188.755 170.127 189.657 168.569 189.235 167.168Z" fill="#2736D1" stroke="#2736D1" stroke-miterlimit="10"/>
<path d="M182.591 167.164C182.555 167.161 182.518 167.161 182.481 167.164C182.259 167.171 182.045 167.25 181.872 167.39C181.699 167.53 181.577 167.723 181.525 167.939C181.423 168.34 181.494 168.712 181.607 168.877C181.63 168.91 181.64 168.95 181.635 168.99C181.629 169.03 181.608 169.066 181.577 169.09L181.552 169.11C181.491 169.156 181.445 169.22 181.421 169.293C181.396 169.366 181.395 169.445 181.416 169.519C181.472 169.704 181.55 169.882 181.648 170.049C181.693 170.126 181.763 170.186 181.846 170.219C181.929 170.251 182.021 170.256 182.107 170.231C182.243 170.191 182.339 170.155 182.339 170.155C182.339 170.155 182.271 170.229 182.176 170.344C182.134 170.398 182.114 170.466 182.119 170.534C182.125 170.602 182.156 170.666 182.206 170.713C182.397 170.873 182.605 171.01 182.828 171.122C182.925 171.171 183.033 171.197 183.142 171.197C183.252 171.197 183.359 171.171 183.457 171.122C183.52 171.082 183.574 171.03 183.617 170.968C183.659 170.906 183.687 170.836 183.701 170.763C183.689 170.883 183.669 171.002 183.643 171.119C183.634 171.158 183.633 171.197 183.64 171.236C183.647 171.274 183.661 171.311 183.683 171.344C183.704 171.376 183.732 171.405 183.764 171.427C183.796 171.449 183.832 171.464 183.871 171.472C184.126 171.521 184.385 171.547 184.645 171.551C184.768 171.555 184.889 171.523 184.995 171.459C185.092 171.403 185.163 171.31 185.192 171.201C185.221 171.092 185.205 170.977 185.149 170.879C185.149 170.879 185.216 171.063 185.269 171.276C185.286 171.343 185.327 171.402 185.385 171.439C185.442 171.477 185.512 171.492 185.58 171.48C185.798 171.443 186.013 171.392 186.225 171.328L186.361 171.285C186.443 171.257 186.513 171.202 186.558 171.129C186.604 171.056 186.623 170.969 186.611 170.883C186.599 170.804 186.483 170.708 186.461 170.629C186.461 170.629 186.772 170.844 187.107 171.025L187.16 170.984C186.524 168.132 184.921 166.45 183.785 165.58C183.277 165.803 182.812 166.113 182.41 166.495C182.359 166.543 182.322 166.603 182.303 166.67C182.284 166.736 182.283 166.807 182.3 166.874C182.318 166.942 182.353 167.003 182.402 167.052C182.452 167.101 182.513 167.136 182.581 167.153L182.591 167.164Z" fill="#4754AA" stroke="#4754AA" stroke-miterlimit="10"/>
<path d="M164.015 167.28L165.091 165.659L165.117 205.434C165.117 209.793 160.532 212.608 156.634 210.66C146.992 205.839 145.899 196.307 145.899 196.307" stroke="#003F99" stroke-width="4" stroke-miterlimit="10"/>
<path d="M165.091 165.659L166.169 167.28" stroke="#003F99" stroke-width="4" stroke-miterlimit="10"/>
<path d="M193.618 134.74C216.25 134.74 234.596 116.394 234.596 93.7624C234.596 71.1309 216.25 52.7844 193.618 52.7844C170.987 52.7844 152.64 71.1309 152.64 93.7624C152.64 116.394 170.987 134.74 193.618 134.74Z" stroke="#294C9D" stroke-width="5" stroke-miterlimit="10"/>
<path d="M197.252 137.35C218.811 137.35 236.288 119.872 236.288 98.3132C236.288 76.754 218.811 59.2769 197.252 59.2769C175.692 59.2769 158.215 76.754 158.215 98.3132C158.215 119.872 175.692 137.35 197.252 137.35Z" fill="#C0C2EF" stroke="#C0C2EF" stroke-miterlimit="10"/>
<path d="M196.369 62.0718L195.588 60.4648C194.593 58.4167 191.554 58.8413 191.16 61.086L188.613 75.6287C188.552 75.979 188.56 76.3379 188.638 76.6848C188.716 77.0317 188.862 77.3598 189.067 77.6502C189.272 77.9406 189.533 78.1876 189.834 78.3771C190.135 78.5665 190.47 78.6946 190.821 78.7541L193.99 79.2879L202.318 74.3139L196.369 62.0718Z" fill="white" stroke="white" stroke-miterlimit="10"/>
<path d="M177.131 91.9491C177.131 85.4717 182.15 80.0566 188.86 78.7145V73.7991C184.29 74.226 180.043 76.3434 176.952 79.7367C173.861 83.13 172.148 87.5549 172.148 92.1451C172.148 96.7352 173.861 101.16 176.952 104.553C180.043 107.947 184.29 110.064 188.86 110.491V105.184C182.15 103.842 177.131 98.4265 177.131 91.9491Z" fill="white" stroke="white" stroke-miterlimit="10"/>
<path d="M215.873 87.427L208.267 90.7134L195.821 61.0436L203.233 57.7312L215.873 87.427Z" fill="#101D3B" stroke="#101D3B" stroke-miterlimit="10"/>
<path d="M210.217 78.8673L204.79 81.2417L192.342 51.5719L197.622 49.1538L210.217 78.8673Z" fill="#192964" stroke="#192964" stroke-miterlimit="10"/>
<path d="M213.097 82.4802L205.492 85.7667L193.045 56.0968L200.457 52.7844L213.097 82.4802Z" fill="#101D3B" stroke="#101D3B" stroke-miterlimit="10"/>
<path d="M216.267 84.2798L205.664 88.8252L193.215 59.1554L203.568 54.6086L216.267 84.2798Z" fill="white" stroke="white" stroke-miterlimit="10"/>
<path d="M206.154 98.4443H218.635V99.5025C218.635 99.8476 218.498 100.179 218.254 100.423C218.01 100.667 217.679 100.804 217.334 100.804H207.456C207.111 100.804 206.78 100.667 206.536 100.423C206.292 100.179 206.155 99.8476 206.155 99.5025V98.4443H206.154Z" fill="black" stroke="black" stroke-width="2" stroke-miterlimit="10"/>
<path d="M202.934 94.7017H221.943V97.4024C221.943 97.9365 221.731 98.4488 221.353 98.8265C220.976 99.2041 220.463 99.4163 219.929 99.4163H204.948C204.414 99.4163 203.902 99.2041 203.524 98.8265C203.147 98.4488 202.934 97.9365 202.934 97.4024V94.7017Z" fill="white" stroke="white" stroke-miterlimit="10"/>
<path d="M218.022 104.358H191.845V109.132H218.022V104.358Z" fill="#101D3B" stroke="#101D3B" stroke-miterlimit="10"/>
<path d="M206.85 97.2482L206.794 106.138C206.792 106.353 206.833 106.565 206.914 106.764C206.995 106.963 207.114 107.144 207.265 107.296C207.416 107.448 207.596 107.569 207.794 107.652C207.992 107.734 208.205 107.777 208.419 107.777H214.595C214.869 107.775 215.138 107.698 215.371 107.555C215.605 107.411 215.795 107.207 215.921 106.963C216.046 106.719 216.103 106.445 216.084 106.172C216.065 105.898 215.972 105.635 215.814 105.41L209.417 96.4385C209.244 96.1949 208.998 96.0125 208.714 95.9175C208.431 95.8225 208.124 95.8198 207.839 95.9098C207.554 95.9997 207.305 96.1777 207.127 96.4181C206.949 96.6586 206.852 96.9492 206.85 97.2482Z" fill="white" stroke="white" stroke-miterlimit="10"/>
<path d="M194.297 81.2709C197.052 80.1298 198.36 76.9718 197.219 74.2171C196.078 71.4624 192.92 70.1543 190.165 71.2953C187.411 72.4363 186.102 75.5944 187.243 78.3491C188.385 81.1038 191.543 82.4119 194.297 81.2709Z" fill="#101D3B" stroke="#101D3B" stroke-miterlimit="10"/>
<path d="M192.231 79.0585C193.764 79.0585 195.007 77.8157 195.007 76.2827C195.007 74.7496 193.764 73.5068 192.231 73.5068C190.698 73.5068 189.455 74.7496 189.455 76.2827C189.455 77.8157 190.698 79.0585 192.231 79.0585Z" fill="white" stroke="white" stroke-miterlimit="10"/>
<path d="M202.252 65.7398C204.175 64.9434 205.088 62.7389 204.292 60.8161C203.495 58.8933 201.291 57.9802 199.368 58.7766C197.445 59.5731 196.532 61.7775 197.329 63.7004C198.125 65.6232 200.33 66.5363 202.252 65.7398Z" fill="#101D3B" stroke="#101D3B" stroke-miterlimit="10"/>
<path d="M201.741 64.5063C202.982 63.9924 203.571 62.5699 203.057 61.3291C202.543 60.0883 201.12 59.4991 199.88 60.013C198.639 60.527 198.05 61.9495 198.564 63.1902C199.078 64.431 200.5 65.0203 201.741 64.5063Z" fill="white" stroke="white" stroke-miterlimit="10"/>
<path d="M207.369 83.589C207.9 83.3691 208.152 82.7605 207.933 82.2296C207.713 81.6987 207.104 81.4467 206.573 81.6665C206.042 81.8864 205.79 82.4951 206.01 83.0259C206.23 83.5568 206.839 83.8089 207.369 83.589Z" fill="#101D3B" stroke="#101D3B" stroke-miterlimit="10"/>
<path d="M209.769 105.999C209.862 105.428 209.474 104.89 208.903 104.797C208.332 104.705 207.794 105.092 207.701 105.663C207.609 106.234 207.997 106.772 208.567 106.865C209.138 106.957 209.676 106.57 209.769 105.999Z" fill="#101D3B" stroke="#101D3B" stroke-miterlimit="10"/>
<path d="M215.048 106.09C215.048 106.194 215.018 106.296 214.96 106.382C214.903 106.468 214.821 106.536 214.725 106.576C214.629 106.616 214.524 106.626 214.422 106.606C214.32 106.586 214.227 106.536 214.153 106.463C214.08 106.39 214.03 106.296 214.009 106.194C213.989 106.093 213.999 105.987 214.039 105.891C214.079 105.795 214.146 105.714 214.232 105.656C214.318 105.598 214.42 105.567 214.524 105.567C214.592 105.567 214.661 105.581 214.724 105.607C214.788 105.633 214.846 105.671 214.894 105.72C214.943 105.769 214.982 105.826 215.008 105.89C215.034 105.953 215.048 106.022 215.048 106.09Z" fill="#101D3B" stroke="#101D3B" stroke-miterlimit="10"/>
<path d="M187.609 104.963L187.49 123.977H206.852L192.242 103.496C190.807 101.475 187.624 102.483 187.609 104.963Z" fill="white" stroke="white" stroke-miterlimit="10"/>
<path d="M191.78 107.277C192.447 106.609 192.447 105.527 191.78 104.859C191.112 104.192 190.03 104.192 189.362 104.859C188.695 105.527 188.695 106.609 189.362 107.277C190.03 107.944 191.112 107.944 191.78 107.277Z" fill="#101D3B" stroke="#101D3B" stroke-miterlimit="10"/>
<path d="M178.232 121.278H216.215C216.534 121.278 216.849 121.34 217.144 121.462C217.438 121.584 217.705 121.763 217.931 121.988C218.156 122.214 218.334 122.481 218.456 122.775C218.578 123.07 218.64 123.385 218.64 123.704V126.68H175.805V123.704C175.805 123.385 175.868 123.07 175.99 122.775C176.112 122.481 176.29 122.213 176.516 121.988C176.741 121.762 177.009 121.584 177.303 121.462C177.597 121.34 177.913 121.277 178.232 121.278Z" fill="#101D3B" stroke="#101D3B" stroke-miterlimit="10"/>
<path d="M223.366 95.0307H201.185C201.053 95.0307 200.927 94.9784 200.834 94.8852C200.741 94.792 200.688 94.6655 200.688 94.5337C200.688 94.4685 200.701 94.404 200.726 94.3437C200.751 94.2835 200.788 94.2288 200.834 94.1828C200.88 94.1367 200.935 94.1003 200.995 94.0754C201.055 94.0506 201.12 94.0379 201.185 94.0381H223.366C223.497 94.0381 223.623 94.0903 223.716 94.1833C223.809 94.2762 223.862 94.4023 223.862 94.5337C223.862 94.6653 223.809 94.7915 223.716 94.8847C223.624 94.9778 223.497 95.0304 223.366 95.0307Z" fill="#101D3B" stroke="#101D3B" stroke-miterlimit="10"/>
<path d="M385.361 198.513C411.578 198.513 432.831 177.26 432.831 151.043C432.831 124.826 411.578 103.573 385.361 103.573C359.143 103.573 337.89 124.826 337.89 151.043C337.89 177.26 359.143 198.513 385.361 198.513Z" fill="white" stroke="white" stroke-width="3" stroke-miterlimit="10"/>
<path d="M385.361 117.341C385.361 117.341 368.951 113.863 361.739 132.142C361.739 132.142 351.879 154.671 368.954 169.979C368.954 169.979 383.866 182.647 402.384 173.749C402.384 173.749 413.208 167.496 410.321 155.471C410.321 155.471 408.882 152.12 403.124 147.782C397.366 143.445 396.497 139.337 396.068 134.206C395.639 129.075 392.72 118.54 385.361 117.341Z" fill="#8BACE7" stroke="#8BACE7" stroke-miterlimit="10"/>
<path d="M386.632 117.476C388.624 117.476 390.239 115.861 390.239 113.869C390.239 111.877 388.624 110.262 386.632 110.262C384.64 110.262 383.024 111.877 383.024 113.869C383.024 115.861 384.64 117.476 386.632 117.476Z" fill="#4754AA" stroke="#4754AA" stroke-miterlimit="10"/>
<path d="M375.462 118.012C377.011 118.012 378.267 116.755 378.267 115.206C378.267 113.656 377.011 112.4 375.462 112.4C373.912 112.4 372.656 113.656 372.656 115.206C372.656 116.755 373.912 118.012 375.462 118.012Z" fill="#4754AA" stroke="#4754AA" stroke-miterlimit="10"/>
<path d="M394.169 122.796C395.718 122.796 396.975 121.54 396.975 119.99C396.975 118.44 395.718 117.184 394.169 117.184C392.619 117.184 391.363 118.44 391.363 119.99C391.363 121.54 392.619 122.796 394.169 122.796Z" fill="#4754AA" stroke="#4754AA" stroke-miterlimit="10"/>
<path d="M367.684 121.967C368.776 121.967 369.661 121.082 369.661 119.99C369.661 118.898 368.776 118.013 367.684 118.013C366.592 118.013 365.707 118.898 365.707 119.99C365.707 121.082 366.592 121.967 367.684 121.967Z" fill="#4754AA" stroke="#4754AA" stroke-miterlimit="10"/>
<path d="M396.467 128.38C397.558 128.38 398.444 127.495 398.444 126.403C398.444 125.311 397.558 124.426 396.467 124.426C395.375 124.426 394.49 125.311 394.49 126.403C394.49 127.495 395.375 128.38 396.467 128.38Z" fill="#4754AA" stroke="#4754AA" stroke-miterlimit="10"/>
<path d="M359.801 130.09C362.442 130.09 364.583 127.948 364.583 125.307C364.583 122.665 362.442 120.524 359.801 120.524C357.159 120.524 355.018 122.665 355.018 125.307C355.018 127.948 357.159 130.09 359.801 130.09Z" fill="#4754AA" stroke="#4754AA" stroke-miterlimit="10"/>
<path d="M360.895 134.286C361.147 133.219 360.486 132.149 359.419 131.898C358.352 131.646 357.282 132.307 357.031 133.374C356.779 134.441 357.44 135.51 358.507 135.762C359.574 136.014 360.643 135.353 360.895 134.286Z" fill="#4754AA" stroke="#4754AA" stroke-miterlimit="10"/>
<path d="M354.189 146.554C356.919 146.554 359.133 144.34 359.133 141.61C359.133 138.879 356.919 136.666 354.189 136.666C351.458 136.666 349.245 138.879 349.245 141.61C349.245 144.34 351.458 146.554 354.189 146.554Z" fill="#4754AA" stroke="#4754AA" stroke-miterlimit="10"/>
<path d="M359.485 155.145C359.827 153.698 358.931 152.247 357.483 151.906C356.036 151.564 354.586 152.461 354.244 153.908C353.903 155.355 354.799 156.805 356.246 157.147C357.694 157.488 359.144 156.592 359.485 155.145Z" fill="#4754AA" stroke="#4754AA" stroke-miterlimit="10"/>
<path d="M361.789 164.983C362.911 163.86 362.911 162.041 361.789 160.918C360.667 159.796 358.847 159.796 357.724 160.918C356.602 162.041 356.602 163.86 357.724 164.983C358.847 166.105 360.667 166.105 361.789 164.983Z" fill="#4754AA" stroke="#4754AA" stroke-miterlimit="10"/>
<path d="M365.523 176.918C367.901 176.918 369.829 174.99 369.829 172.612C369.829 170.233 367.901 168.305 365.523 168.305C363.144 168.305 361.216 170.233 361.216 172.612C361.216 174.99 363.144 176.918 365.523 176.918Z" fill="#4754AA" stroke="#4754AA" stroke-miterlimit="10"/>
<path d="M377.802 179.609C379.07 179.084 379.672 177.63 379.147 176.362C378.622 175.094 377.168 174.492 375.9 175.018C374.632 175.543 374.03 176.996 374.555 178.264C375.081 179.532 376.534 180.134 377.802 179.609Z" fill="#4754AA" stroke="#4754AA" stroke-miterlimit="10"/>
<path d="M387.69 183.595C389.256 182.029 389.256 179.491 387.69 177.926C386.125 176.36 383.586 176.36 382.021 177.926C380.455 179.491 380.455 182.029 382.021 183.595C383.586 185.16 386.125 185.16 387.69 183.595Z" fill="#4754AA" stroke="#4754AA" stroke-miterlimit="10"/>
<path d="M397.155 184.308C399.468 184.308 401.344 182.432 401.344 180.119C401.344 177.805 399.468 175.93 397.155 175.93C394.841 175.93 392.966 177.805 392.966 180.119C392.966 182.432 394.841 184.308 397.155 184.308Z" fill="#4754AA" stroke="#4754AA" stroke-miterlimit="10"/>
<path d="M407.926 176.774C409.001 175.699 409.001 173.956 407.926 172.881C406.851 171.806 405.108 171.806 404.033 172.881C402.958 173.956 402.958 175.699 404.033 176.774C405.108 177.849 406.851 177.849 407.926 176.774Z" fill="#4754AA" stroke="#4754AA" stroke-miterlimit="10"/>
<path d="M411.153 171.305C412.666 171.305 413.893 170.078 413.893 168.565C413.893 167.052 412.666 165.825 411.153 165.825C409.639 165.825 408.412 167.052 408.412 168.565C408.412 170.078 409.639 171.305 411.153 171.305Z" fill="#4754AA" stroke="#4754AA" stroke-miterlimit="10"/>
<path d="M413.964 157.23C416.351 157.23 418.287 155.294 418.287 152.907C418.287 150.519 416.351 148.584 413.964 148.584C411.577 148.584 409.641 150.519 409.641 152.907C409.641 155.294 411.577 157.23 413.964 157.23Z" fill="#4754AA" stroke="#4754AA" stroke-miterlimit="10"/>
<path d="M406.221 149.385C407.874 149.385 409.214 148.045 409.214 146.392C409.214 144.739 407.874 143.399 406.221 143.399C404.568 143.399 403.228 144.739 403.228 146.392C403.228 148.045 404.568 149.385 406.221 149.385Z" fill="#4754AA" stroke="#4754AA" stroke-miterlimit="10"/>
<path d="M378.374 151.844C380.175 151.844 381.634 150.385 381.634 148.584C381.634 146.783 380.175 145.323 378.374 145.323C376.573 145.323 375.113 146.783 375.113 148.584C375.113 150.385 376.573 151.844 378.374 151.844Z" fill="#FA4256" stroke="#FA4256" stroke-miterlimit="10"/>
<path d="M463.081 94.3671L382.843 152.467L386.14 146.69L461.471 92.1443L463.081 94.3671Z" fill="#101D3B" stroke="#101D3B" stroke-miterlimit="10"/>
<path d="M307.493 104.43C307.661 97.2114 301.784 95.3654 301.784 95.3654C305.309 91.84 302.96 87.4748 302.96 87.4748C303.296 93.6859 299.765 93.1821 299.765 93.1821C295.395 82.102 289.026 81.0957 289.026 81.0957C282.815 79.0804 275.428 85.465 275.428 85.465C275.428 85.465 257.633 83.2804 249.239 95.5374C242.074 105.996 245.794 119.022 247.038 122.616C248.721 114.62 253.568 101.589 267.37 99.4042C287.514 96.2146 300.693 107.617 302.078 124.915L304.109 126.212C310.8 110.931 302.456 100.578 302.456 100.578C305.645 100.233 307.493 104.43 307.493 104.43Z" fill="#172A65" stroke="#172A65" stroke-miterlimit="10"/>
<path opacity="0.65" d="M272.909 77.0663C272.909 77.0663 256.121 79.2509 249.742 88.3144C243.363 97.3778 238.998 107.456 238.998 107.456C238.998 107.456 231.947 118.925 236.311 129.811C240.675 140.697 247.388 149.086 247.388 149.086C247.388 149.086 252.257 156.05 265.604 154.669L288.016 156.641C288.016 156.641 301.286 157.481 307.493 152.272C307.493 152.272 311.015 149.59 313.197 143.461C315.379 137.332 316.891 129.807 316.891 129.807C316.891 129.807 319.499 121.039 315.884 111.481C314.146 106.888 311.19 100.694 308.586 95.4963C302.715 83.7663 290.626 76.3809 277.51 76.7004C275.971 76.739 274.435 76.8611 272.909 77.0663Z" fill="#91C8E7" stroke="#91C8E7" stroke-miterlimit="10"/>
<path d="M273.581 100.569C250.915 101.744 250.442 121.545 250.442 121.545L249.716 124.406L247.388 123.567C247.388 123.567 247.252 123.226 247.035 122.612C246.261 126.286 246.154 128.892 246.154 128.892L269.213 134.141L302.075 124.901L298.928 122.893C298.928 122.893 296.245 99.4 273.581 100.569Z" fill="#172A65" stroke="#172A65" stroke-miterlimit="10"/>
<path d="M267.37 99.4C253.568 101.585 248.721 114.621 247.038 122.612C247.251 123.227 247.391 123.567 247.391 123.567L249.712 124.404L250.437 121.544C250.437 121.544 250.913 101.746 273.577 100.567C296.241 99.3891 298.926 122.896 298.926 122.896L302.074 124.904C300.693 107.607 287.514 96.205 267.37 99.4Z" fill="#3B7CDB" stroke="#3B7CDB" stroke-miterlimit="10"/>
<path d="M263.508 167.049C263.508 167.049 226.763 170.005 210.395 185.113C210.395 185.113 174.385 213.568 176.652 264.684C176.652 264.684 180.681 303.715 226.258 288.354H328.492C328.492 288.354 368.026 300.693 372.055 265.44C372.055 265.44 382.525 206.004 326.478 176.786C326.478 176.786 314.01 170.676 288.858 167.553L263.508 167.049Z" fill="#91C8E7" stroke="#91C8E7" stroke-miterlimit="10"/>
<path d="M262.668 148.417C262.668 148.417 264.684 153.79 263.508 167.052C263.508 167.052 269.139 176.789 276.228 176.789C283.317 176.789 288.858 167.556 288.858 167.556C288.858 167.556 287.178 156.14 288.858 145.564L262.668 148.417Z" fill="white" stroke="black" stroke-width="3" stroke-miterlimit="10"/>
<path d="M304.052 130.452C304.052 130.452 301.619 145.729 311.525 145.225C311.525 145.225 310.685 148.415 306.488 147.743C306.488 147.743 302.794 147.407 301.451 142.539C301.451 142.539 300.495 148.411 305.172 150.43C305.172 150.43 298.597 156.641 286.343 152.615V139.856L301.116 127.623L304.052 130.452Z" fill="#172A65" stroke="#172A65" stroke-miterlimit="10"/>
<path d="M304.052 128.135C304.052 128.135 298.222 145.079 306.822 144.642H306.803C304.755 144.956 302.707 143.839 301.478 142.171C301.124 141.689 300.989 141.091 300.875 140.404C300.856 140.295 300.8 140.196 300.717 140.123C300.634 140.05 300.528 140.007 300.418 140.002C300.308 139.998 300.199 140.031 300.11 140.096C300.021 140.162 299.957 140.256 299.928 140.363C299.22 143.094 298.426 147.92 301.301 149.157C301.301 149.157 295.593 154.551 284.953 151.053V139.974L297.781 129.352L304.052 128.135Z" fill="#001133" stroke="#001133" stroke-miterlimit="10"/>
<path d="M248.903 133.272C248.903 133.272 248.735 150.262 255.618 152.612C262.501 154.962 272.071 152.612 272.071 152.612L260.487 135.818L248.903 133.272Z" fill="#172A65" stroke="#172A65" stroke-miterlimit="10"/>
<path d="M251.916 133.272C251.916 133.272 251.748 150.262 258.631 152.612C265.514 154.962 275.084 152.612 275.084 152.612L263.5 135.818L251.916 133.272Z" fill="#001133" stroke="#001133" stroke-miterlimit="10"/>
<path d="M302.603 122.057C300.903 121.092 298.343 120.883 294.901 123.905C294.901 123.905 294.063 121.555 294.229 115.849C294.229 115.849 282.815 118.367 278.45 108.126C278.45 108.126 276.938 104.937 276.938 100.572C276.938 100.572 273.749 105.44 277.946 115.513C277.946 115.513 268.209 113.835 264.012 115.345C264.012 115.345 263.172 113.16 263.676 109.974C263.676 109.974 262.165 111.988 262.501 115.681C262.501 115.681 257.503 116.353 254.965 118.2C254.965 118.2 255.656 122.569 254.965 124.754C254.965 124.754 251.027 119.818 246.93 121.801C245.273 122.601 244.236 124.283 244.127 126.119C243.933 129.417 245.007 135.347 254.965 136.272C254.965 136.272 255.784 142.441 259.707 147.636C262.697 151.596 267.49 154.981 275.11 154.654C275.11 154.654 285.462 155.7 291.568 143.976C292.564 142.037 293.362 140.003 293.951 137.904C293.951 137.904 304.591 137.261 305.161 126.844C305.22 125.888 305.012 124.934 304.56 124.088C304.109 123.243 303.431 122.54 302.603 122.057Z" fill="#FA8282" stroke="#FA8282" stroke-miterlimit="10"/>
<path d="M290.08 129.807C272.079 125.554 259.898 130.284 259.898 130.284C256.692 135.895 258.514 143.817 259.707 147.624C262.697 151.584 267.49 154.968 275.11 154.642C275.11 154.642 285.462 155.688 291.568 143.963C292.51 137.104 290.08 129.807 290.08 129.807Z" fill="#D0E1E7" stroke="#D0E1E7" stroke-miterlimit="10"/>
<path d="M254.965 124.744L259.898 130.284" stroke="#D0E1E7" stroke-width="5" stroke-miterlimit="10"/>
<path d="M294.901 123.905L290.08 129.807" stroke="#D0E1E7" stroke-width="5" stroke-miterlimit="10"/>
<path d="M304.052 128.135C304.052 128.135 302.512 123.952 297.73 128.364C297.73 128.364 295.018 131.061 295.545 133.279" stroke="#FA4256" stroke-width="3" stroke-miterlimit="10"/>
<path d="M300.385 133.537C301.539 132.056 301.613 130.183 300.549 129.354C299.485 128.524 297.687 129.052 296.532 130.533C295.378 132.014 295.304 133.887 296.368 134.716C297.432 135.546 299.23 135.018 300.385 133.537Z" fill="#FA4256" stroke="#FA4256" stroke-miterlimit="10"/>
<path d="M246.16 127.224C246.16 127.224 247.7 123.042 252.481 127.453C252.481 127.453 255.193 130.148 254.666 132.362" stroke="#FA4256" stroke-width="3" stroke-miterlimit="10"/>
<path d="M253.843 133.776C254.907 132.947 254.833 131.074 253.679 129.593C252.524 128.113 250.726 127.584 249.662 128.414C248.598 129.243 248.671 131.116 249.826 132.597C250.98 134.078 252.779 134.606 253.843 133.776Z" fill="#FA4256" stroke="#FA4256" stroke-miterlimit="10"/>
<path d="M288.665 119.927C285.18 118.184 281.953 119.904 281.92 119.927L281.604 119.35C281.74 119.27 285.154 117.438 288.96 119.35L288.665 119.927Z" fill="#172A65" stroke="#172A65" stroke-miterlimit="10"/>
<path d="M268.81 120.341C268.766 120.319 264.431 118.275 261.942 120.299L261.526 119.788C264.341 117.5 268.899 119.651 269.095 119.747L268.81 120.341Z" fill="#172A65" stroke="#172A65" stroke-miterlimit="10"/>
<path d="M253.811 107.286L248.903 103.256" stroke="#003F99" stroke-width="4" stroke-miterlimit="10"/>
<path d="M262.669 100.569L259.647 91.8398" stroke="#003F99" stroke-width="4" stroke-miterlimit="10"/>
<path d="M274.117 98.8594L274.637 89.4888" stroke="#003F99" stroke-width="4" stroke-miterlimit="10"/>
<path d="M284.493 100.559L288.858 92.5117" stroke="#003F99" stroke-width="4" stroke-miterlimit="10"/>
<path d="M292.745 105.271L297.588 100.559" stroke="#003F99" stroke-width="4" stroke-miterlimit="10"/>
<path d="M251.358 110.882L248.903 109.299" stroke="#003F99" stroke-width="4" stroke-miterlimit="10"/>
<path d="M257.993 103.256L256.289 100.559" stroke="#003F99" stroke-width="4" stroke-miterlimit="10"/>
<path d="M268.396 99.1489L268.094 96.8455" stroke="#003F99" stroke-width="4" stroke-miterlimit="10"/>
<path d="M279.961 99.4042L280.778 96.145" stroke="#003F99" stroke-width="4" stroke-miterlimit="10"/>
<path d="M289.063 102.656C289.306 102.416 291.096 99.4041 291.096 99.4041" stroke="#003F99" stroke-width="4" stroke-miterlimit="10"/>
<path d="M295.887 108.5L298.45 106.333" stroke="#003F99" stroke-width="4" stroke-miterlimit="10"/>
<path d="M176.653 264.684C176.653 264.684 180.075 303.525 226.259 288.354C226.259 288.354 246.698 271.269 244.107 249.577C244.107 249.577 229.524 247.796 218.453 234.968L214.756 236.894C214.756 236.894 220.354 241.632 224.546 249.68C229.541 259.287 226.169 271.179 216.883 276.751C204.981 283.894 184.066 285.775 176.653 264.684Z" fill="#54A2DB" stroke="#54A2DB" stroke-miterlimit="10"/>
<path d="M226.259 288.354C248.167 267.706 244.107 249.577 244.107 249.577C228.466 247.06 218.453 234.968 218.453 234.968C199.316 242.021 192.773 259.15 192.773 259.15" stroke="#317EC9" stroke-width="5" stroke-miterlimit="10"/>
<path d="M271.066 265.924L227.327 210.717L233.676 205.687L276.437 265.53L271.066 265.924Z" fill="#101D3B" stroke="#101D3B" stroke-miterlimit="10"/>
<path d="M250.992 228.661C250.452 228.213 250.973 226.146 250.973 226.146C251.197 222.959 249.407 222.842 248.515 222.394C247.623 221.946 247.731 220.714 247.731 220.714C247.731 217.357 246.613 216.573 245.157 216.345C243.702 216.117 243.59 215.003 243.59 215.003L242.92 213.212C241.352 210.302 238.778 212.764 238.778 212.764C238.778 212.764 234.861 216.793 233.63 218.248C232.398 219.704 231.28 219.804 231.28 219.804C230.272 217.555 232.509 213.436 232.509 213.436C232.509 213.436 237.992 206.721 234.522 205.043C231.053 203.364 228.924 207.5 228.924 207.5C228.924 207.5 226.127 211.417 223.441 214.663C220.755 217.909 221.427 224.064 221.427 224.064C221.65 230.891 218.453 234.964 218.453 234.964C218.453 234.964 228.466 247.05 244.107 249.573C247.091 245.418 251.197 236.381 252.316 233.359C253.436 230.338 251.532 229.111 250.992 228.661Z" fill="#DFEEF5" stroke="#DFEEF5" stroke-miterlimit="10"/>
<path d="M314.266 224.647C314.266 224.647 314.529 240.895 300.039 248.317C300.039 248.317 302.961 274.003 328.492 288.354C328.492 288.354 369.058 300.266 372.055 265.44C372.055 265.44 353.051 287.265 329.193 262.016C325.118 257.705 323.954 251.427 326.093 245.895C327.905 241.212 329.444 234.644 328.353 227.111C328.356 227.111 320.11 224.689 314.266 224.647Z" fill="#54A2DB" stroke="#54A2DB" stroke-miterlimit="10"/>
<path d="M328.492 288.354C328.492 288.354 304.823 277.274 300.039 248.317C300.039 248.317 314.139 241.519 314.266 224.647C314.266 224.647 336.061 225.912 354.429 238.748" stroke="#317EC9" stroke-width="5" stroke-miterlimit="10"/>
<path d="M314.266 224.647C314.266 224.647 304.067 220.115 294.247 218.604L277.376 237.992L284.175 243.783C284.175 243.783 292.231 241.769 300.039 248.316C300.039 248.317 314.139 241.519 314.266 224.647Z" fill="#DFEEF5" stroke="#DFEEF5" stroke-miterlimit="10"/>
<path d="M222.873 239.296C222.873 239.296 216.691 244.037 212.41 251.584" stroke="#003F99" stroke-width="4" stroke-miterlimit="10"/>
<path d="M234.886 246.862C234.886 246.862 233.563 253.609 229.03 259.904" stroke="#003F99" stroke-width="4" stroke-miterlimit="10"/>
<path d="M229.029 243.793L225.504 249.576" stroke="#003F99" stroke-width="4" stroke-miterlimit="10"/>
<path d="M239.675 248.579L238.598 253.378" stroke="#003F99" stroke-width="4" stroke-miterlimit="10"/>
<path d="M305.169 245.443C305.169 245.443 312.629 250.835 315.902 258.141" stroke="#003F99" stroke-width="4" stroke-miterlimit="10"/>
<path d="M312.202 234.972C312.202 234.972 319.68 234.719 325.719 240.511" stroke="#003F99" stroke-width="4" stroke-miterlimit="10"/>
<path d="M309.022 240.511C309.022 240.511 314.393 242.066 317.415 245.443" stroke="#003F99" stroke-width="4" stroke-miterlimit="10"/>
<path d="M313.746 229.916C313.746 229.916 317.669 229.684 322.202 231.95" stroke="#003F99" stroke-width="4" stroke-miterlimit="10"/>
<path d="M254.965 118.197L255.102 119.202C255.102 119.202 256.177 117.46 263.096 116.691C263.096 116.691 262.776 114.117 263.232 112.61C263.232 112.61 262.914 115.275 264.097 116.691C264.097 116.691 269.988 114.212 279.299 116.691C279.299 116.691 275.495 109.097 276.35 103.447C276.35 103.447 276.359 118.193 294.213 117.33L294.235 115.841C294.235 115.841 277.775 119.164 276.944 100.563C276.944 100.563 273.691 105.354 277.951 115.505C277.951 115.505 270.091 113.919 264.017 115.337C264.017 115.337 263.357 113.026 263.682 109.965C263.682 109.965 262.148 111.596 262.506 115.673C262.501 115.678 257.219 116.284 254.965 118.197Z" fill="#FA4256" stroke="#FA4256" stroke-miterlimit="10"/>
<path d="M265.506 208.852L251.872 217.413V222.618L265.506 230.929H285.548L299.247 223.458V217.749L285.548 208.852H265.506Z" fill="#192964" stroke="#192964" stroke-miterlimit="10"/>
<path d="M283.582 188.135H267.472C266.386 188.135 265.506 189.015 265.506 190.101V264.229C265.506 265.315 266.386 266.195 267.472 266.195H283.582C284.668 266.195 285.548 265.315 285.548 264.229V190.101C285.548 189.015 284.668 188.135 283.582 188.135Z" fill="#415DE5" stroke="#415DE5" stroke-miterlimit="10"/>
<path d="M285.548 192.642H265.311V261.662H271.01C271.01 261.662 264.046 191.262 285.554 198.513L285.548 192.642Z" fill="#2639DB" stroke="#2639DB" stroke-miterlimit="10"/>
<path d="M290.528 258.137H261.429C260.286 258.137 259.359 259.064 259.359 260.207V289.306C259.359 290.449 260.286 291.376 261.429 291.376H290.528C291.671 291.376 292.598 290.449 292.598 289.306V260.207C292.598 259.064 291.671 258.137 290.528 258.137Z" fill="#192964" stroke="#192964" stroke-miterlimit="10"/>
<path d="M290.84 267.404H261.116C260.146 267.404 259.359 268.191 259.359 269.161V289.619C259.359 290.589 260.146 291.376 261.116 291.376H290.84C291.811 291.376 292.598 290.589 292.598 289.619V269.161C292.598 268.191 291.811 267.404 290.84 267.404Z" fill="#000920" stroke="#000920" stroke-width="0.78" stroke-miterlimit="10"/>
<path d="M308.627 270.727H243.183C242.022 270.727 241.08 271.668 241.08 272.83V293.05C241.08 294.211 242.022 295.152 243.183 295.152H308.627C309.789 295.152 310.73 294.211 310.73 293.05V272.83C310.73 271.668 309.789 270.727 308.627 270.727Z" fill="#101D3B" stroke="#101D3B" stroke-miterlimit="10"/>
<path d="M252.496 183.603H298.806V190.419C298.806 191.417 298.41 192.373 297.705 193.078C297 193.783 296.043 194.18 295.046 194.18H256.255C255.258 194.18 254.302 193.783 253.596 193.078C252.891 192.373 252.495 191.417 252.495 190.419V183.603H252.496Z" fill="#101D3B" stroke="#101D3B" stroke-miterlimit="10"/>
<path d="M252.496 183.603H298.806V187.164C298.806 187.946 298.495 188.697 297.942 189.25C297.389 189.803 296.639 190.113 295.857 190.113H255.444C254.662 190.113 253.912 189.803 253.359 189.25C252.806 188.697 252.495 187.946 252.495 187.164V183.603H252.496Z" fill="#000920" stroke="#000920" stroke-width="0.78" stroke-miterlimit="10"/>
<path d="M307.205 165.874H244.082C242.969 165.874 242.068 166.775 242.068 167.888V171.079C242.068 172.191 242.969 173.093 244.082 173.093H307.205C308.317 173.093 309.219 172.191 309.219 171.079V167.888C309.219 166.775 308.317 165.874 307.205 165.874Z" fill="#101D3B" stroke="#101D3B" stroke-miterlimit="10"/>
<path d="M289.288 147.343H261.878V176.786H289.288V147.343Z" fill="#101D3B" stroke="#101D3B" stroke-miterlimit="10"/>
<path d="M289.288 146.25H261.878V153.553H289.288V146.25Z" fill="#000920" stroke="#000920" stroke-miterlimit="10"/>
<path d="M303.84 181.906L301.759 162.624L301.552 160.698C301.433 159.597 300.912 158.579 300.088 157.839C299.264 157.099 298.196 156.69 297.088 156.69H254.173C253.066 156.69 251.999 157.099 251.175 157.838C250.352 158.578 249.83 159.595 249.711 160.695L247.412 181.905C247.344 182.531 247.409 183.165 247.602 183.765C247.795 184.365 248.113 184.917 248.534 185.386C248.954 185.855 249.469 186.23 250.045 186.487C250.62 186.743 251.244 186.876 251.874 186.876H299.378C300.008 186.876 300.631 186.743 301.207 186.487C301.782 186.23 302.297 185.855 302.718 185.386C303.139 184.918 303.456 184.365 303.65 183.766C303.843 183.166 303.908 182.533 303.84 181.906Z" fill="#415DE5" stroke="#415DE5" stroke-miterlimit="10"/>
<path d="M295.15 186.876H256.1C253.904 186.876 252.195 185.264 252.431 183.416L254.322 168.661C254.525 167.075 256.106 165.874 257.989 165.874H293.265C295.15 165.874 296.731 167.077 296.933 168.662L298.816 183.419C299.053 185.265 297.344 186.876 295.15 186.876Z" fill="#7AA0EF" stroke="#7AA0EF" stroke-miterlimit="10"/>
<path d="M286.215 186.876H264.232C262.995 186.876 262.032 185.541 262.166 184.009L263.231 171.789C263.346 170.475 264.236 169.481 265.295 169.481H285.155C286.216 169.481 287.106 170.477 287.221 171.79L288.28 184.01C288.413 185.542 287.45 186.876 286.215 186.876Z" fill="#C6DBEF" stroke="#C6DBEF" stroke-miterlimit="10"/>
<path opacity="0.4" d="M293.839 162.624H301.758L301.55 160.698C301.432 159.597 300.91 158.579 300.086 157.839C299.262 157.099 298.194 156.69 297.087 156.69H254.173C253.066 156.69 251.999 157.099 251.175 157.838C250.352 158.578 249.83 159.595 249.711 160.695L247.412 181.905C247.344 182.531 247.409 183.165 247.602 183.765C247.795 184.365 248.113 184.917 248.534 185.386C248.954 185.855 249.469 186.23 250.045 186.487C250.62 186.743 251.244 186.876 251.874 186.876H258.643C261.362 179.744 266.183 173.606 272.468 169.275C278.753 164.944 286.206 162.625 293.839 162.624Z" fill="#2639DB" stroke="#2639DB" stroke-miterlimit="10"/>
<path d="M269.508 123.924C269.179 123.063 267.619 122.412 265.743 122.412C263.867 122.412 262.308 123.063 261.98 123.924H261.915V143.462H269.572V123.924H269.508Z" fill="#101D3B" stroke="#101D3B" stroke-miterlimit="10"/>
<path d="M287.875 123.503C287.378 122.76 285.936 122.224 284.233 122.224C282.531 122.224 281.093 122.76 280.59 123.503H280.405V143.043H288.062V123.503H287.875Z" fill="#101D3B" stroke="#101D3B" stroke-miterlimit="10"/>
<path d="M293.032 148.964L292.26 140.416L292.098 138.607C292.059 138.173 291.858 137.769 291.537 137.475C291.215 137.181 290.794 137.018 290.358 137.018H260.406C259.979 137.018 259.566 137.174 259.247 137.458C258.927 137.742 258.723 138.132 258.672 138.557L257.443 148.914C257.414 149.159 257.437 149.408 257.51 149.643C257.584 149.879 257.707 150.096 257.871 150.281C258.035 150.465 258.236 150.613 258.461 150.714C258.686 150.815 258.93 150.867 259.177 150.867H291.301C291.542 150.866 291.782 150.815 292.003 150.717C292.224 150.618 292.422 150.475 292.585 150.296C292.748 150.117 292.872 149.906 292.948 149.677C293.025 149.447 293.054 149.205 293.032 148.964Z" fill="#415DE5" stroke="#415DE5" stroke-miterlimit="10"/>
<path d="M265.306 146.522C265.507 144.84 266.318 143.289 267.585 142.164C268.852 141.039 270.488 140.418 272.182 140.417H292.254L292.091 138.608C292.052 138.174 291.852 137.77 291.53 137.476C291.208 137.182 290.788 137.019 290.352 137.019H260.406C259.979 137.019 259.566 137.176 259.247 137.459C258.927 137.743 258.723 138.134 258.672 138.558L257.443 148.916C257.414 149.161 257.437 149.409 257.51 149.645C257.584 149.88 257.707 150.097 257.871 150.282C258.035 150.466 258.236 150.614 258.461 150.715C258.686 150.816 258.93 150.868 259.177 150.868H266.231C265.45 149.562 265.125 148.033 265.306 146.522Z" fill="#2639DB" stroke="#2639DB" stroke-miterlimit="10"/>
<path d="M265.506 208.852V230.929L251.872 222.618V220.843C251.872 220.843 262.873 230.114 263.5 210.116L265.506 208.852Z" fill="#0A1653" stroke="#0A1653" stroke-miterlimit="10"/>
<path d="M285.548 208.852V230.929L299.247 223.456V222.024C299.247 222.024 287.7 232.528 287.587 210.175L285.548 208.852Z" fill="#0A1653" stroke="#0A1653" stroke-miterlimit="10"/>
<path d="M372.033 288.364H408.078L418.903 256.815L432.821 256.699L433.979 258.39L428.894 288.364H461.71L474.766 230.858L385.266 230.077L372.033 288.364Z" fill="#415DE5" stroke="#415DE5" stroke-miterlimit="10"/>
<path d="M385.266 230.077L382.724 227.382L368.796 288.364H372.033L385.266 230.077Z" fill="#101D3B" stroke="#101D3B" stroke-miterlimit="10"/>
<path d="M474.766 230.858L472.363 228.65L382.724 227.382L385.266 230.077L474.766 230.858Z" fill="#192964" stroke="#192964" stroke-miterlimit="10"/>
<path d="M410.026 288.364H428.895L433.979 258.389L420.131 258.505L410.026 288.364Z" fill="#2944D3" stroke="#2944D3" stroke-miterlimit="10"/>
<path d="M420.132 258.506L418.903 256.815L408.078 288.364H410.026L420.132 258.506Z" fill="#101D3B" stroke="#101D3B" stroke-miterlimit="10"/>
<path d="M433.979 258.39L432.821 256.699L418.903 256.815L420.131 258.506L433.979 258.39Z" fill="#2736D1" stroke="#2736D1" stroke-miterlimit="10"/>
<path d="M474.766 230.858L385.266 230.077L372.033 288.369L387.462 288.506C387.462 288.506 400.352 236.029 472.629 240.308L474.766 230.858Z" fill="#2736D1" stroke="#2736D1" stroke-miterlimit="10"/>
<path d="M346.107 75.1453C349.552 75.1453 352.346 72.3523 352.346 68.9069C352.346 65.4615 349.552 62.6685 346.107 62.6685C342.662 62.6685 339.869 65.4615 339.869 68.9069C339.869 72.3523 342.662 75.1453 346.107 75.1453Z" fill="#91A6F6" stroke="#91A6F6" stroke-miterlimit="10"/>
<path d="M501.666 299.189C502.218 295.788 499.909 292.584 496.508 292.032C493.107 291.48 489.903 293.789 489.351 297.19C488.799 300.591 491.108 303.795 494.509 304.347C497.91 304.899 501.114 302.59 501.666 299.189Z" fill="#91A6F6" stroke="#91A6F6" stroke-miterlimit="10"/>
<path d="M208.782 310.528C210.861 308.448 210.861 305.076 208.782 302.997C206.702 300.917 203.33 300.917 201.251 302.997C199.171 305.076 199.171 308.448 201.251 310.528C203.33 312.607 206.702 312.607 208.782 310.528Z" fill="#91A6F6" stroke="#91A6F6" stroke-miterlimit="10"/>
<path d="M136.208 245.627C139.149 245.627 141.533 243.243 141.533 240.302C141.533 237.361 139.149 234.977 136.208 234.977C133.267 234.977 130.883 237.361 130.883 240.302C130.883 243.243 133.267 245.627 136.208 245.627Z" fill="#91A6F6" stroke="#91A6F6" stroke-miterlimit="10"/>
<path d="M217.892 162.155C218.452 159.784 216.984 157.409 214.613 156.849C212.243 156.29 209.867 157.758 209.308 160.128C208.748 162.499 210.217 164.874 212.587 165.434C214.958 165.993 217.333 164.525 217.892 162.155Z" fill="#91A6F6" stroke="#91A6F6" stroke-miterlimit="10"/>
<path d="M466.2 211.97C467.923 210.247 467.923 207.455 466.2 205.733C464.478 204.01 461.686 204.01 459.963 205.733C458.241 207.455 458.241 210.247 459.963 211.97C461.686 213.692 464.478 213.692 466.2 211.97Z" fill="#91A6F6" stroke="#91A6F6" stroke-miterlimit="10"/>
<path d="M499.757 157.691C500.316 155.321 498.848 152.945 496.478 152.386C494.107 151.826 491.732 153.294 491.172 155.665C490.613 158.036 492.081 160.411 494.451 160.97C496.822 161.53 499.197 160.062 499.757 157.691Z" fill="#91A6F6" stroke="#91A6F6" stroke-miterlimit="10"/>
<path d="M339.87 376.846C343.315 376.846 346.108 374.053 346.108 370.608C346.108 367.162 343.315 364.369 339.87 364.369C336.425 364.369 333.632 367.162 333.632 370.608C333.632 374.053 336.425 376.846 339.87 376.846Z" fill="#91A6F6" stroke="#91A6F6" stroke-miterlimit="10"/>
<path d="M131.815 106.765C135.261 106.765 138.054 103.972 138.054 100.527C138.054 97.0811 135.261 94.2881 131.815 94.2881C128.37 94.2881 125.577 97.0811 125.577 100.527C125.577 103.972 128.37 106.765 131.815 106.765Z" fill="#91A6F6" stroke="#91A6F6" stroke-miterlimit="10"/>
</g>
<defs>
<clipPath id="clip0_27_56016">
<rect width="532" height="426" fill="white"/>
</clipPath>
</defs>
</svg>
